<svg id="eventClip">
    <defs>
        <clipPath id="clip" clipPathUnits="userSpaceOnUse">
            <polygon points="0,515 0,512.822 0,510.644 0,508.467 0,506.289 0,504.111 0,501.933 0,499.755 0,497.577 0,495.4 0,493.222 0,491.044 0,488.866 0,486.688 0,484.51 0,482.333 0,480.155 0,477.977 0,475.799 0,473.621 0,471.443 0,469.266 0,467.088 0,464.91 0,462.732 0,460.554 0,458.377 0,456.199 0,454.021 0,451.843 0,449.665 0,447.487 0,445.31 0,443.132 0,440.954 0,438.776 0,436.598 0,434.42 0,432.243 0,430.065 0,427.887 0,425.709 0,423.531 0,421.354 0,419.176 0,416.998 0,414.82 0,412.642 0,410.464 0,408.287 0,406.109 0,403.931 0,401.753 0,399.575 0,397.397 0,395.22 0,393.042 0,390.864 0,388.686 0,386.508 0,384.33 0,382.153 0,379.975 0,377.797 0,375.619 0,373.441 0,371.264 0,369.086 0,366.908 0,364.73 0,362.552 0,360.374 0,358.197 0,356.019 0,353.841 0,351.663 0,349.485 0,347.307 0,345.13 0,342.952 0,340.774 0,338.596 0,336.418 0,334.24 0,332.063 0,329.885 0,327.707 0,325.529 0,323.351 0,321.174 0,318.996 0,316.818 0,314.64 0,312.462 0,310.284 1.786,309.957 3.881,309.393 5.699,308.212 7.064,306.527 7.842,304.502 7.97,302.336 7.442,300.232 6.294,298.393 4.632,296.998 2.622,296.185 0.459,296.016 0,294.39 0,292.212 0,290.034 0,287.856 0,285.678 0,283.5 0,281.323 0,279.145 0,276.967 0,274.789 0,272.611 0,270.433 0,268.256 0,266.078 0,263.9 0,261.722 0,259.544 0,257.366 0,255.189 0,253.011 0,250.833 0,248.655 0,246.477 0,244.3 0,242.122 0,239.944 0,237.766 0,235.588 0,233.41 0,231.233 0,229.055 0,226.877 0,224.699 0,222.521 0,220.343 0,218.166 0,215.988 0,213.81 0,211.632 0,209.454 0,207.276 0,205.099 0,202.921 0,200.743 0,198.565 0,196.387 0,194.21 0,192.032 0,189.854 0,187.676 0,185.498 0,183.32 0,181.143 0,178.965 0,176.787 0,174.609 0,172.431 0,170.253 0,168.076 0,165.898 0,163.72 0,161.542 0,159.364 0,157.187 0,155.009 0,152.831 0,150.653 0,148.475 0,146.297 0,144.12 0,141.942 0,139.764 0,137.586 0,135.408 0,133.23 0,131.053 0,128.875 0,126.697 0,124.519 0,122.341 0,120.163 0,117.986 0,115.808 0,113.63 0,111.452 0,109.274 0,107.097 0,104.919 0,102.741 0,100.563 0,98.385 0,96.207 0,94.03 0,91.852 0,89.674 0,87.496 0,85.318 0,83.14 0,80.963 0,78.785 0,76.607 0,74.429 0,72.251 0,70.073 0,67.896 0,65.718 0,63.54 0,61.362 0,59.184 0,57.007 0,54.829 0,52.651 0,50.473 0,48.295 0,46.117 0,43.94 0,41.762 0,39.584 0,37.406 0,35.228 0,33.05 0,30.873 0,28.695 0,26.517 0,24.339 0,22.161 0,19.983 0,17.806 0,15.628 0,13.45 0,11.272 0,9.094 0,6.917 0,4.739 0,2.561 0,0.383 1.795,0 3.973,0 6.15,0 8.328,0 10.506,0 12.684,0 14.862,0 17.04,0 19.217,0 21.395,0 23.573,0 25.751,0 27.929,0 30.107,0 32.284,0 34.462,0 36.64,0 38.818,0 40.996,0 43.173,0 45.351,0 47.529,0 49.707,0 51.885,0 54.063,0 56.24,0 58.418,0 60.596,0 62.774,0 64.952,0 67.13,0 69.307,0 71.485,0 73.663,0 75.841,0 78.019,0 80.196,0 82.374,0 84.552,0 86.73,0 88.908,0 91.086,0 93.263,0 95.441,0 97.619,0 99.797,0 101.975,0 104.153,0 106.33,0 108.508,0 110.686,0 112.864,0 115.042,0 117.22,0 119.397,0 121.575,0 123.753,0 125.931,0 128.109,0 130.287,0 132.464,0 134.642,0 136.82,0 138.998,0 141.176,0 143.353,0 145.531,0 147.709,0 149.887,0 152.065,0 154.243,0 156.42,0 158.598,0 160.776,0 162.954,0 165.132,0 167.31,0 169.487,0 171.665,0 173.843,0 176.021,0 178.199,0 180.376,0 182.554,0 184.732,0 186.91,0 189.088,0 191.266,0 193.443,0 195.621,0 197.799,0 199.977,0 202.155,0 204.333,0 206.51,0 208.688,0 210.866,0 213.044,0 215.222,0 217.4,0 219.577,0 221.755,0 223.933,0 226.111,0 228.289,0 230.467,0 232.644,0 234.822,0 237,0 237,2.178 237,4.356 237,6.533 237,8.711 237,10.889 237,13.067 237,15.245 237,17.423 237,19.6 237,21.778 237,23.956 237,26.134 237,28.312 237,30.49 237,32.667 237,34.845 237,37.023 237,39.201 237,41.379 237,43.556 237,45.734 237,47.912 237,50.09 237,52.268 237,54.446 237,56.623 237,58.801 237,60.979 237,63.157 237,65.335 237,67.513 237,69.69 237,71.868 237,74.046 237,76.224 237,78.402 237,80.58 237,82.757 237,84.935 237,87.113 237,89.291 237,91.469 237,93.646 237,95.824 237,98.002 237,100.18 237,102.358 237,104.536 237,106.713 237,108.891 237,111.069 237,113.247 237,115.425 237,117.603 237,119.78 237,121.958 237,124.136 237,126.314 237,128.492 237,130.67 237,132.847 237,135.025 237,137.203 237,139.381 237,141.559 237,143.736 237,145.914 237,148.092 237,150.27 237,152.448 237,154.626 237,156.803 237,158.981 237,161.159 237,163.337 237,165.515 237,167.693 237,169.87 237,172.048 237,174.226 237,176.404 237,178.582 237,180.76 237,182.937 237,185.115 237,187.293 237,189.471 237,191.649 237,193.826 237,196.004 237,198.182 237,200.36 237,202.538 237,204.716 237,206.893 237,209.071 237,211.249 237,213.427 237,215.605 237,217.783 237,219.96 237,222.138 237,224.316 237,226.494 237,228.672 237,230.849 237,233.027 237,235.205 237,237.383 237,239.561 237,241.739 237,243.916 237,246.094 237,248.272 237,250.45 237,252.628 237,254.806 237,256.983 237,259.161 237,261.339 237,263.517 237,265.695 237,267.872 237,270.05 237,272.228 237,274.406 237,276.584 237,278.762 237,280.939 237,283.117 237,285.295 237,287.473 237,289.651 237,291.829 237,294.006 236.916,296.098 234.75,296.109 232.698,296.812 230.963,298.113 229.715,299.887 229.075,301.959 229.088,304.129 229.755,306.193 231.026,307.95 232.777,309.23 234.838,309.906 237,309.901 237,312.079 237,314.257 237,316.435 237,318.613 237,320.791 237,322.968 237,325.146 237,327.324 237,329.502 237,331.68 237,333.858 237,336.035 237,338.213 237,340.391 237,342.569 237,344.747 237,346.924 237,349.102 237,351.28 237,353.458 237,355.636 237,357.814 237,359.991 237,362.169 237,364.347 237,366.525 237,368.703 237,370.881 237,373.058 237,375.236 237,377.414 237,379.592 237,381.77 237,383.948 237,386.125 237,388.303 237,390.481 237,392.659 237,394.837 237,397.014 237,399.192 237,401.37 237,403.548 237,405.726 237,407.904 237,410.081 237,412.259 237,414.437 237,416.615 237,418.793 237,420.97 237,423.148 237,425.326 237,427.504 237,429.682 237,431.86 237,434.037 237,436.215 237,438.393 237,440.571 237,442.749 237,444.927 237,447.104 237,449.282 237,451.46 237,453.638 237,455.816 237,457.994 237,460.171 237,462.349 237,464.527 237,466.705 237,468.883 237,471.061 237,473.238 237,475.416 237,477.594 237,479.772 237,481.95 237,484.127 237,486.305 237,488.483 237,490.661 237,492.839 237,495.017 237,497.194 237,499.372 237,501.55 237,503.728 237,505.906 237,508.084 237,510.261 237,512.439 237,514.617 235.205,515 233.027,515 230.849,515 228.672,515 226.494,515 224.316,515 222.138,515 219.96,515 217.783,515 215.605,515 213.427,515 211.249,515 209.071,515 206.893,515 204.716,515 202.538,515 200.36,515 198.182,515 196.004,515 193.826,515 191.649,515 189.471,515 187.293,515 185.115,515 182.937,515 180.76,515 178.582,515 176.404,515 174.226,515 172.048,515 169.87,515 167.693,515 165.515,515 163.337,515 161.159,515 158.981,515 156.803,515 154.626,515 152.448,515 150.27,515 148.092,515 145.914,515 143.736,515 141.559,515 139.381,515 137.203,515 135.025,515 132.847,515 130.67,515 128.492,515 126.314,515 124.136,515 121.958,515 119.78,515 117.603,515 115.425,515 113.247,515 111.069,515 108.891,515 106.714,515 104.536,515 102.358,515 100.18,515 98.002,515 95.824,515 93.646,515 91.469,515 89.291,515 87.113,515 84.935,515 82.757,515 80.58,515 78.402,515 76.224,515 74.046,515 71.868,515 69.69,515 67.513,515 65.335,515 63.157,515 60.979,515 58.801,515 56.623,515 54.446,515 52.268,515 50.09,515 47.912,515 45.734,515 43.557,515 41.379,515 39.201,515 37.023,515 34.845,515 32.667,515 30.49,515 28.312,515 26.134,515 23.956,515 21.778,515 19.6,515 17.423,515 15.245,515 13.067,515 10.889,515 8.711,515 6.533,515 4.356,515 2.178,515 0,515"></polygon>
        </clipPath>
    </defs>
</svg>
